<svg width="128" height="128" viewBox="0 0 128 128" fill="none" xmlns="http://www.w3.org/2000/svg">
<g id="Size=128">
<rect id="Rectangle 418" x="4" y="20" width="120" height="88" rx="8" fill="url(#paint0_linear_2056_1671)"/>
<path id="Subtract" fill-rule="evenodd" clip-rule="evenodd" d="M12 20C7.58172 20 4 23.5817 4 28V100C4 104.418 7.58172 108 12 108H116C120.418 108 124 104.418 124 100V28C124 23.5817 120.418 20 116 20H12ZM12 24C9.79086 24 8 25.7909 8 28V100C8 102.209 9.79086 104 12 104H116C118.209 104 120 102.209 120 100V28C120 25.7909 118.209 24 116 24H12Z" fill="url(#paint1_linear_2056_1671)"/>
<rect id="Rectangle 493" x="34" y="61" width="22" height="5" rx="2.5" fill="#FFAD00"/>
<path id="Rectangle 494" d="M24.487 36.8379C30.1547 42.3686 39 51 39 51C39 51 30.3318 59.4586 24.487 65.1621C23.5799 66.0472 22.2193 66.4897 20.8587 65.1621C19.4981 63.8344 19.9516 62.5067 20.8587 61.6215C25.2866 57.3007 31.7435 51 31.7435 51C31.7435 51 25.1095 44.5264 20.8587 40.3785C19.9516 39.4933 19.4981 38.1656 20.8587 36.8379C22.2193 35.5103 23.5799 35.9528 24.487 36.8379Z" fill="#FFAD00"/>
</g>
<defs>
<linearGradient id="paint0_linear_2056_1671" x1="124" y1="20" x2="3.05838" y2="106.686" gradientUnits="userSpaceOnUse">
<stop stop-color="#243C5F"/>
<stop offset="1" stop-color="#102A4C"/>
</linearGradient>
<linearGradient id="paint1_linear_2056_1671" x1="124" y1="20" x2="3.05838" y2="106.686" gradientUnits="userSpaceOnUse">
<stop stop-color="#BEBEBE"/>
<stop offset="1" stop-color="#9E9E9E"/>
</linearGradient>
</defs>
</svg>
